# xmcd CD database file
#
# Track frame offsets:
#	150
#	24801
#	47565
#	73965
#	99382
#	120471
#	140790
#	168783
#	189153
#	211034
#	232689
#	255099
#	279272
#	298831
#
# Disc length: 4295 seconds
#
# Revision: 0
# Processed by: cddbd v1.5.2PL0 Copyright (c) Steve Scherf et al.
# Submitted via: CDex 1.50
#
DISCID=b210c50e
DTITLE=Maelo Ruiz - Exitos
DYEAR=1900
DGENRE=Salsa
TTITLE0=Te Necesito Mi Amor
TTITLE1=Igual que Ayer
TTITLE2=Mi Mundo Es De Ella
TTITLE3=Nadie Igual Que Tu
TTITLE4=Vuelve A Ser Mia Otra Vez
TTITLE5=Apasaionadamente
TTITLE6=Contra Viento Y Marea
TTITLE7=Experiencia Religiosa
TTITLE8=La Primera Noche
TTITLE9=La Duena De Mi Corazón
TTITLE10=Disfruto De Mi Juventud
TTITLE11=El reloj Cucu
TTITLE12=Te Amo
TTITLE13=Amar Sin Condición
EXTD=
EXTT0=
EXTT1=
EXTT2=
EXTT3=
EXTT4=
EXTT5=
EXTT6=
EXTT7=
EXTT8=
EXTT9=
EXTT10=
EXTT11=
EXTT12=
EXTT13=
PLAYORDER=
